<?xml version="1.0" encoding="UTF-8" standalone="no"?><svg xmlns="http://www.w3.org/2000/svg" width="900" height="600" viewBox="-50 -30 900 600"><path style="fill:#d00000;fill-opacity:1;stroke-width:30" d="M-50-30h900v600H-50z"/><path d="M531.487 469.368l-130.988-67.55-130.612 68.272 23.766-145.45L188.36 221.517l145.676-22.344 65.539-132.005 66.266 131.641 145.797 21.54-104.72 103.702z" style="fill:#ffce00;fill-opacity:1;fill-rule:nonzero;stroke:none;stroke-width:30"/><path d="M517.421 449.265L400.446 388.94l-116.64 60.969 21.223-129.891-94.028-92.091 130.092-19.954L399.621 90.09l59.178 117.559 130.2 19.235-93.518 92.61z" style="fill:#d00000;fill-opacity:1;fill-rule:nonzero;stroke:none;stroke-width:30"/><path style="color:#000;display:inline;overflow:visible;visibility:visible;fill:#ffce00;fill-opacity:1;fill-rule:evenodd;stroke:none;stroke-width:16.85770798;marker:none;enable-background:accumulate" d="M360.012 213.138l-44.024 34.122 20.747 30.65 69.616-52.255zm69.487 10.46c39.087 32.756 37.526 74.775 10.846 95.121l3.772 4.587c7.444-6.446 20.411-15.042 19.89-47.882-.08-5.612.327-7.987 1.243-11.531 2.373 3.357 3.798 5.293 4.63 10.416 5.033 30.98-8.154 44.459-19.462 56.67l7.116 8.66c18.353-14.49 29.856-34.393 27.65-58.085-2.207-23.692-18.117-51.198-55.685-57.956zm-50.797 30.05l-17.942 13.607 92.702 124.81c10.788 14.576 34.372 3.352 24.82-16.89zm-8.016 60.913l-14.189 20.105 10.803 9.002-.042.084h.123l7.801.943c21.553 11.247 33.142 11.531 43.039 9.945l-15.904-23.148c-6.42-.288-12.817-2.606-19.247-7.63l-.081.129zm-17.743 24.034l-4.59 4.516 13.803 9.902 2.83-5.228zm-7.977 9.06l-28.678 27.134c-6.509 19.373 5.938 28.021 25.463 18.09l17.404-34.936z"/></svg>